<svg width="23" height="23" viewBox="0 0 23 23" fill="none" xmlns="http://www.w3.org/2000/svg">
<path fill-rule="evenodd" clip-rule="evenodd" d="M7.02827 14.6098C6.77937 14.7111 6.48586 14.6132 6.34574 14.3705C6.19288 14.1057 6.28046 13.769 6.54134 13.6184L14.8447 8.82444L10.0948 7.52445L10.018 7.49725C9.77219 7.38931 9.63311 7.11446 9.702 6.84729C9.77779 6.55341 10.0765 6.3801 10.3692 6.4602L16.3925 8.10834C16.4279 8.11728 16.4624 8.12974 16.4955 8.14556C16.7324 8.25844 16.8641 8.5286 16.7954 8.79066L15.2079 14.8411L15.1816 14.918C15.0765 15.1638 14.8048 15.2993 14.539 15.2253C14.2466 15.144 14.072 14.8401 14.149 14.5465L15.3989 9.78278L7.09489 14.5771L7.02827 14.6098Z" fill="#1ECAAB"/>
</svg>
