<svg width="17" height="17" viewBox="0 0 17 17" fill="none" xmlns="http://www.w3.org/2000/svg">
<path d="M9.87282 12.2512C10.2807 12.2512 10.6258 11.9375 10.6258 11.4982V6.22705H13.3555C13.9203 6.22705 14.2027 5.56815 13.7948 5.16027L9.02567 0.391131C8.80604 0.1715 8.39816 0.1715 8.17852 0.391131L3.40939 5.16027C3.0015 5.56815 3.28389 6.22705 3.84865 6.22705H6.60973V11.4982C6.60973 11.9375 6.92349 12.2512 7.36275 12.2512H9.87282ZM16.65 12.0002C16.65 11.5923 16.3049 11.2472 15.897 11.2472H11.6299V11.4982C11.6299 12.4709 10.8141 13.2552 9.87282 13.2552H7.36275C6.3901 13.2552 5.6057 12.4709 5.6057 11.4982V11.2472H1.33858C0.899317 11.2472 0.585558 11.5923 0.585558 12.0002V15.5143C0.585558 15.9536 0.899317 16.2673 1.33858 16.2673H15.897C16.3049 16.2673 16.65 15.9536 16.65 15.5143V12.0002ZM12.7594 14.7613C12.7594 15.1064 12.477 15.3888 12.1319 15.3888C11.7868 15.3888 11.5044 15.1064 11.5044 14.7613C11.5044 14.4162 11.7868 14.1338 12.1319 14.1338C12.477 14.1338 12.7594 14.4162 12.7594 14.7613ZM14.7675 14.7613C14.7675 15.1064 14.4851 15.3888 14.1399 15.3888C13.7948 15.3888 13.5124 15.1064 13.5124 14.7613C13.5124 14.4162 13.7948 14.1338 14.1399 14.1338C14.4851 14.1338 14.7675 14.4162 14.7675 14.7613Z" fill="#183B56"/>
</svg>
