<svg width="33" height="32" viewBox="0 0 33 32" fill="none" xmlns="http://www.w3.org/2000/svg">
<path d="M7.25875 14.358H2.36038C1.50317 14.358 0.89087 15.0316 0.89087 15.8276V30.5227C0.89087 31.3799 1.50317 31.9922 2.36038 31.9922H7.25875C8.05474 31.9922 8.72827 31.3799 8.72827 30.5227V15.8276C8.72827 15.0316 8.05474 14.358 7.25875 14.358ZM4.80957 29.543C3.95235 29.543 3.34006 28.9307 3.34006 28.0735C3.34006 27.2775 3.95235 26.604 4.80957 26.604C5.60555 26.604 6.27908 27.2775 6.27908 28.0735C6.27908 28.9307 5.60555 29.543 4.80957 29.543ZM24.4031 5.66343C24.4031 1.13244 21.464 0.642603 19.9945 0.642603C18.7087 0.642603 18.1576 3.09179 17.9127 4.19392C17.5453 5.54098 17.2392 6.88803 16.3207 7.80647C14.3614 9.82705 13.3205 12.3375 10.8713 14.7254C10.7488 14.9091 10.6876 15.0928 10.6876 15.2765V28.3796C10.6876 28.747 10.9938 29.0532 11.3611 29.1144C12.3408 29.1144 13.6266 29.6655 14.6063 30.0941C16.5657 30.9513 18.9536 31.9922 21.8926 31.9922H22.0763C24.7092 31.9922 27.8319 31.9922 29.0565 30.2165C29.6076 29.4818 29.73 28.5633 29.4239 27.4612C30.4648 26.4203 30.9546 24.4609 30.4648 22.869C31.5057 21.4607 31.6282 19.4401 31.0159 18.0318C31.7506 17.2971 32.2405 16.1337 32.1792 15.0316C32.1792 13.1335 30.5873 11.419 28.5667 11.419H22.3212C22.8111 9.70459 24.4031 8.23508 24.4031 5.66343Z" fill="#1565D8"/>
</svg>
