<svg width="7" height="6" viewBox="0 0 7 6" fill="none" xmlns="http://www.w3.org/2000/svg">
<path d="M1.7619 2.72735H0.921291C0.774185 2.72735 0.669109 2.84293 0.669109 2.97953V5.50136C0.669109 5.64847 0.774185 5.75354 0.921291 5.75354H1.7619C1.8985 5.75354 2.01408 5.64847 2.01408 5.50136V2.97953C2.01408 2.84293 1.8985 2.72735 1.7619 2.72735ZM1.3416 5.33324C1.19449 5.33324 1.08941 5.22816 1.08941 5.08105C1.08941 4.94446 1.19449 4.82887 1.3416 4.82887C1.4782 4.82887 1.59378 4.94446 1.59378 5.08105C1.59378 5.22816 1.4782 5.33324 1.3416 5.33324ZM4.70403 1.23527C4.70403 0.457703 4.19967 0.373642 3.94749 0.373642C3.72683 0.373642 3.63226 0.793947 3.59023 0.983084C3.52718 1.21425 3.47464 1.44542 3.31703 1.60303C2.98078 1.94978 2.80215 2.3806 2.38185 2.79039C2.36083 2.82192 2.35033 2.85344 2.35033 2.88496V5.13359C2.35033 5.19664 2.40287 5.24918 2.46591 5.25968C2.63403 5.25968 2.85469 5.35425 3.02281 5.42781C3.35906 5.57491 3.76886 5.75354 4.27322 5.75354H4.30474C4.75657 5.75354 5.29246 5.75354 5.50261 5.44882C5.59718 5.32273 5.6182 5.16512 5.56566 4.97598C5.74429 4.79735 5.82835 4.46111 5.74429 4.18791C5.92292 3.94623 5.94393 3.59948 5.83886 3.35781C5.96495 3.23171 6.04901 3.03207 6.0385 2.84293C6.0385 2.5172 5.7653 2.22298 5.41855 2.22298H4.34677C4.43084 1.92877 4.70403 1.67659 4.70403 1.23527Z" fill="#1565D8"/>
</svg>
