<svg width="113" height="30" viewBox="0 0 113 30" fill="none" xmlns="http://www.w3.org/2000/svg">
<path d="M0.828247 28.7766L10.7475 15.7677L23.919 10.7267L39.5297 2.59619L50.9125 7.79974L66.6857 11.7024L81.8086 7.79974L92.8661 21.6217H101.647L108.802 15.7677" stroke="#D8D8D8" stroke-width="1.30089" stroke-linecap="round"/>
<path d="M13.8376 14.9535C13.8376 16.2109 12.8183 17.2302 11.5609 17.2302C10.3035 17.2302 9.28415 16.2109 9.28415 14.9535C9.28415 13.6961 10.3035 12.6768 11.5609 12.6768C12.8183 12.6768 13.8376 13.6961 13.8376 14.9535Z" fill="#D8D8D8" stroke="white" stroke-width="0.650444"/>
<path d="M42.1318 2.5951C42.1318 3.85249 41.1124 4.87181 39.855 4.87181C38.5977 4.87181 37.5783 3.85249 37.5783 2.5951C37.5783 1.33771 38.5977 0.318386 39.855 0.318386C41.1124 0.318386 42.1318 1.33771 42.1318 2.5951Z" fill="#D8D8D8" stroke="white" stroke-width="0.650444"/>
<path d="M68.8 11.3759C68.8 12.6333 67.7807 13.6526 66.5233 13.6526C65.2659 13.6526 64.2466 12.6333 64.2466 11.3759C64.2466 10.1185 65.2659 9.09915 66.5233 9.09915C67.7807 9.09915 68.8 10.1185 68.8 11.3759Z" fill="#D8D8D8" stroke="white" stroke-width="0.650444"/>
<path d="M83.7606 7.79871C83.7606 9.05611 82.7413 10.0754 81.4839 10.0754C80.2265 10.0754 79.2072 9.05611 79.2072 7.79871C79.2072 6.54132 80.2265 5.522 81.4839 5.522C82.7413 5.522 83.7606 6.54132 83.7606 7.79871Z" fill="#D8D8D8" stroke="white" stroke-width="0.650444"/>
<path d="M95.4684 21.4574C95.4684 22.7148 94.4491 23.7341 93.1917 23.7341C91.9343 23.7341 90.9149 22.7148 90.9149 21.4574C90.9149 20.2 91.9343 19.1807 93.1917 19.1807C94.4491 19.1807 95.4684 20.2 95.4684 21.4574Z" fill="#D8D8D8" stroke="white" stroke-width="0.650444"/>
<path d="M103.924 21.4574C103.924 22.7148 102.905 23.7341 101.647 23.7341C100.39 23.7341 99.3708 22.7148 99.3708 21.4574C99.3708 20.2 100.39 19.1807 101.647 19.1807C102.905 19.1807 103.924 20.2 103.924 21.4574Z" fill="#D8D8D8" stroke="white" stroke-width="0.650444"/>
<path d="M111.73 14.9535C111.73 16.2109 110.71 17.2302 109.453 17.2302C108.195 17.2302 107.176 16.2109 107.176 14.9535C107.176 13.6961 108.195 12.6768 109.453 12.6768C110.71 12.6768 111.73 13.6961 111.73 14.9535Z" fill="#D8D8D8" stroke="white" stroke-width="0.650444"/>
</svg>
