<svg width="175" height="227" viewBox="0 0 175 227" fill="none" xmlns="http://www.w3.org/2000/svg">
<rect x="0.491486" y="0.939941" width="173.622" height="225.709" rx="6.94489" fill="white"/>
<rect x="21.3264" y="21.7739" width="41.6693" height="5.20867" rx="1.73622" fill="#B3BAC5"/>
<rect opacity="0.1" x="120.291" y="21.7739" width="32.9882" height="5.20867" rx="1.73622" fill="#5A7184"/>
<path d="M76.3985 73.2124C51.4181 78.2667 32.6119 100.345 32.6119 126.816C32.6119 157.021 57.0979 181.507 87.3029 181.507C102.276 181.507 115.845 175.49 125.721 165.741" stroke="#FFD167" stroke-width="8.68111" stroke-linecap="round"/>
<path fill-rule="evenodd" clip-rule="evenodd" d="M132.63 156.159C134.184 157.221 136.278 156.843 137.223 155.216C140.113 150.239 145.466 139.206 145.466 125.76C145.466 85.0959 105.067 72.4566 92.1155 69.4494C90.0455 68.9688 88.171 70.5655 88.171 72.6905V121.179C88.171 124.046 89.586 126.727 91.9523 128.345L132.63 156.159Z" fill="#FF7342"/>
</svg>
