<svg width="267" height="319" viewBox="0 0 267 319" fill="none" xmlns="http://www.w3.org/2000/svg">
<g filter="url(#filter0_d_1_1677)">
<rect x="35" y="20.0889" width="196.343" height="248.107" rx="7.13976" fill="white"/>
</g>
<g clip-path="url(#clip0_1_1677)">
<path d="M83.7823 237.465H82.5329V228.606H83.7823V237.465ZM87.0718 237.465H85.9098V231.455H87.0343V232.255C87.2176 231.938 87.4758 231.697 87.809 231.53C88.1422 231.363 88.492 231.28 88.8585 231.28C89.25 231.28 89.6082 231.376 89.9331 231.567C90.2579 231.759 90.4995 232.042 90.6578 232.417C91.0742 231.659 91.7448 231.28 92.6694 231.28C93.2441 231.28 93.7314 231.476 94.1313 231.867C94.5394 232.259 94.7435 232.825 94.7435 233.567V237.465H93.5815V233.691C93.5815 233.275 93.4732 232.942 93.2566 232.692C93.0484 232.442 92.7319 232.317 92.307 232.317C91.8989 232.317 91.5657 232.463 91.3075 232.754C91.0493 233.038 90.9201 233.396 90.9201 233.829V237.465H89.7457V233.691C89.7457 233.275 89.6374 232.942 89.4208 232.692C89.2126 232.442 88.896 232.317 88.4712 232.317C88.0547 232.317 87.7174 232.459 87.4591 232.742C87.2009 233.025 87.0718 233.392 87.0718 233.841V237.465ZM96.2481 235.853C96.2481 235.337 96.4147 234.924 96.7479 234.616C97.0811 234.3 97.5226 234.104 98.0723 234.029L99.6966 233.791C100.005 233.75 100.159 233.6 100.159 233.342C100.159 233.025 100.051 232.767 99.8341 232.567C99.6175 232.367 99.2926 232.267 98.8595 232.267C98.4597 232.267 98.1431 232.38 97.9099 232.604C97.6767 232.821 97.5392 233.113 97.4976 233.479L96.3731 233.217C96.4314 232.642 96.6937 232.175 97.1602 231.817C97.6267 231.451 98.1848 231.268 98.8345 231.268C99.6841 231.268 100.313 231.476 100.721 231.892C101.129 232.3 101.333 232.825 101.333 233.467V236.478C101.333 236.836 101.358 237.165 101.408 237.465H100.259C100.217 237.215 100.196 236.944 100.196 236.653C100.03 236.919 99.7841 237.152 99.4592 237.352C99.1427 237.552 98.7429 237.652 98.2597 237.652C97.6683 237.652 97.1852 237.477 96.8104 237.127C96.4355 236.769 96.2481 236.344 96.2481 235.853ZM98.4222 236.665C98.9469 236.665 99.3676 236.524 99.6841 236.24C100.001 235.957 100.159 235.507 100.159 234.891V234.616L98.3222 234.891C98.0557 234.933 97.8433 235.028 97.685 235.178C97.5267 235.328 97.4476 235.532 97.4476 235.791C97.4476 236.024 97.5351 236.228 97.71 236.403C97.8932 236.578 98.1306 236.665 98.4222 236.665ZM102.726 237.79L103.863 237.527C103.904 237.952 104.075 238.302 104.375 238.577C104.675 238.86 105.05 239.002 105.5 239.002C106.724 239.002 107.336 238.352 107.336 237.053V236.19C107.186 236.482 106.949 236.719 106.624 236.903C106.308 237.086 105.933 237.177 105.5 237.177C104.7 237.177 104.038 236.907 103.513 236.365C102.996 235.816 102.738 235.116 102.738 234.266C102.738 233.442 102.996 232.75 103.513 232.192C104.029 231.626 104.692 231.342 105.5 231.342C106.416 231.342 107.032 231.659 107.349 232.292V231.455H108.511V237.015C108.511 237.415 108.457 237.786 108.348 238.127C108.248 238.477 108.086 238.798 107.861 239.089C107.636 239.381 107.32 239.61 106.911 239.776C106.512 239.943 106.041 240.026 105.5 240.026C104.758 240.026 104.129 239.814 103.613 239.389C103.096 238.973 102.801 238.439 102.726 237.79ZM105.674 236.19C106.183 236.19 106.595 236.015 106.911 235.666C107.228 235.307 107.386 234.841 107.386 234.266C107.386 233.691 107.228 233.229 106.911 232.879C106.595 232.521 106.183 232.342 105.674 232.342C105.158 232.342 104.737 232.517 104.413 232.867C104.096 233.217 103.938 233.683 103.938 234.266C103.938 234.858 104.092 235.328 104.4 235.678C104.717 236.02 105.141 236.19 105.674 236.19ZM111.149 233.841H114.435C114.418 233.392 114.268 233.025 113.985 232.742C113.702 232.45 113.302 232.305 112.785 232.305C112.319 232.305 111.936 232.459 111.636 232.767C111.336 233.067 111.174 233.425 111.149 233.841ZM114.61 235.403L115.622 235.753C115.447 236.311 115.122 236.769 114.647 237.127C114.172 237.477 113.598 237.652 112.923 237.652C112.082 237.652 111.365 237.365 110.774 236.79C110.191 236.207 109.899 235.424 109.899 234.441C109.899 233.525 110.182 232.767 110.749 232.167C111.315 231.567 111.99 231.268 112.773 231.268C113.681 231.268 114.389 231.555 114.897 232.13C115.405 232.696 115.659 233.458 115.659 234.416C115.659 234.566 115.651 234.691 115.634 234.791H111.111C111.12 235.324 111.294 235.761 111.636 236.103C111.986 236.444 112.415 236.615 112.923 236.615C113.781 236.615 114.343 236.211 114.61 235.403ZM116.596 235.903L117.658 235.528C117.7 235.853 117.842 236.124 118.083 236.34C118.325 236.549 118.649 236.653 119.058 236.653C119.374 236.653 119.624 236.578 119.807 236.428C119.991 236.27 120.082 236.078 120.082 235.853C120.082 235.453 119.824 235.195 119.308 235.078L118.283 234.853C117.817 234.754 117.45 234.554 117.183 234.254C116.917 233.954 116.784 233.592 116.784 233.167C116.784 232.65 116.992 232.205 117.408 231.83C117.833 231.455 118.337 231.268 118.92 231.268C119.303 231.268 119.645 231.326 119.945 231.442C120.245 231.551 120.478 231.697 120.644 231.88C120.811 232.063 120.936 232.234 121.019 232.392C121.103 232.55 121.165 232.713 121.207 232.879L120.17 233.267C120.153 233.167 120.124 233.071 120.082 232.979C120.041 232.879 119.974 232.771 119.882 232.654C119.799 232.538 119.674 232.446 119.507 232.38C119.341 232.305 119.145 232.267 118.92 232.267C118.629 232.267 118.387 232.346 118.196 232.504C118.012 232.663 117.921 232.85 117.921 233.067C117.921 233.45 118.15 233.691 118.608 233.791L119.582 234.004C120.116 234.12 120.524 234.337 120.807 234.654C121.098 234.962 121.244 235.341 121.244 235.791C121.244 236.265 121.048 236.694 120.657 237.078C120.274 237.461 119.737 237.652 119.045 237.652C118.304 237.652 117.725 237.469 117.308 237.103C116.892 236.728 116.655 236.328 116.596 235.903Z" fill="#5A7184"/>
<path fill-rule="evenodd" clip-rule="evenodd" d="M71.5911 236.066C73.0698 236.066 74.2685 234.867 74.2685 233.388C74.2685 231.91 73.0698 230.711 71.5911 230.711C70.1124 230.711 68.9137 231.91 68.9137 233.388C68.9137 234.867 70.1124 236.066 71.5911 236.066Z" fill="#00B8D9"/>
</g>
<g clip-path="url(#clip1_1_1677)">
<path fill-rule="evenodd" clip-rule="evenodd" d="M148.344 236.066C149.822 236.066 151.021 234.867 151.021 233.388C151.021 231.91 149.822 230.711 148.344 230.711C146.865 230.711 145.666 231.91 145.666 233.388C145.666 234.867 146.865 236.066 148.344 236.066Z" fill="#1565D8"/>
<path d="M162.259 235.891L164.958 228.606H166.245L162.833 237.465H161.622L158.285 228.606H159.585L162.259 235.891ZM168.534 237.465H167.372V231.455H168.534V237.465ZM167.347 229.781C167.189 229.614 167.109 229.414 167.109 229.181C167.109 228.948 167.189 228.748 167.347 228.581C167.513 228.415 167.713 228.331 167.947 228.331C168.18 228.331 168.38 228.415 168.546 228.581C168.713 228.739 168.796 228.939 168.796 229.181C168.796 229.414 168.713 229.614 168.546 229.781C168.38 229.939 168.18 230.018 167.947 230.018C167.713 230.018 167.513 229.939 167.347 229.781ZM171.232 234.441C171.232 235.074 171.386 235.591 171.694 235.99C172.011 236.39 172.444 236.59 172.994 236.59C173.518 236.59 173.939 236.386 174.255 235.978C174.572 235.57 174.73 235.049 174.73 234.416C174.73 233.791 174.576 233.287 174.268 232.904C173.96 232.521 173.539 232.33 173.006 232.33C172.473 232.33 172.044 232.525 171.719 232.917C171.394 233.308 171.232 233.816 171.232 234.441ZM174.743 236.653V236.553C174.585 236.861 174.343 237.119 174.018 237.327C173.702 237.527 173.323 237.627 172.881 237.627C172.023 237.627 171.332 237.327 170.807 236.728C170.291 236.12 170.032 235.357 170.032 234.441C170.032 233.567 170.299 232.825 170.832 232.217C171.365 231.601 172.048 231.293 172.881 231.293C173.373 231.293 173.772 231.392 174.081 231.592C174.389 231.784 174.601 232.021 174.718 232.305V228.419H175.88V236.353C175.88 236.761 175.901 237.132 175.942 237.465H174.805C174.764 237.232 174.743 236.961 174.743 236.653ZM178.64 233.841H181.926C181.909 233.392 181.759 233.025 181.476 232.742C181.193 232.45 180.793 232.305 180.276 232.305C179.81 232.305 179.427 232.459 179.127 232.767C178.827 233.067 178.665 233.425 178.64 233.841ZM182.101 235.403L183.113 235.753C182.938 236.311 182.613 236.769 182.138 237.127C181.663 237.477 181.089 237.652 180.414 237.652C179.573 237.652 178.856 237.365 178.265 236.79C177.682 236.207 177.39 235.424 177.39 234.441C177.39 233.525 177.673 232.767 178.24 232.167C178.806 231.567 179.481 231.268 180.264 231.268C181.172 231.268 181.88 231.555 182.388 232.13C182.896 232.696 183.15 233.458 183.15 234.416C183.15 234.566 183.142 234.691 183.125 234.791H178.602C178.611 235.324 178.785 235.761 179.127 236.103C179.477 236.444 179.906 236.615 180.414 236.615C181.272 236.615 181.834 236.211 182.101 235.403ZM185.886 236.04C186.253 236.415 186.699 236.603 187.223 236.603C187.748 236.603 188.19 236.415 188.548 236.04C188.914 235.657 189.098 235.128 189.098 234.454C189.098 233.787 188.914 233.267 188.548 232.892C188.19 232.509 187.748 232.317 187.223 232.317C186.699 232.317 186.253 232.509 185.886 232.892C185.528 233.267 185.349 233.787 185.349 234.454C185.349 235.128 185.528 235.657 185.886 236.04ZM185.012 232.18C185.595 231.572 186.332 231.268 187.223 231.268C188.115 231.268 188.848 231.572 189.422 232.18C190.006 232.779 190.297 233.537 190.297 234.454C190.297 235.378 190.01 236.145 189.435 236.753C188.86 237.352 188.123 237.652 187.223 237.652C186.324 237.652 185.587 237.352 185.012 236.753C184.437 236.145 184.15 235.378 184.15 234.454C184.15 233.537 184.437 232.779 185.012 232.18ZM191.237 235.903L192.3 235.528C192.341 235.853 192.483 236.124 192.724 236.34C192.966 236.549 193.291 236.653 193.699 236.653C194.015 236.653 194.265 236.578 194.449 236.428C194.632 236.27 194.723 236.078 194.723 235.853C194.723 235.453 194.465 235.195 193.949 235.078L192.924 234.853C192.458 234.754 192.091 234.554 191.825 234.254C191.558 233.954 191.425 233.592 191.425 233.167C191.425 232.65 191.633 232.205 192.05 231.83C192.474 231.455 192.978 231.268 193.561 231.268C193.945 231.268 194.286 231.326 194.586 231.442C194.886 231.551 195.119 231.697 195.286 231.88C195.452 232.063 195.577 232.234 195.661 232.392C195.744 232.55 195.806 232.713 195.848 232.879L194.811 233.267C194.794 233.167 194.765 233.071 194.723 232.979C194.682 232.879 194.615 232.771 194.524 232.654C194.44 232.538 194.315 232.446 194.149 232.38C193.982 232.305 193.786 232.267 193.561 232.267C193.27 232.267 193.028 232.346 192.837 232.504C192.654 232.663 192.562 232.85 192.562 233.067C192.562 233.45 192.791 233.691 193.249 233.791L194.224 234.004C194.757 234.12 195.165 234.337 195.448 234.654C195.74 234.962 195.885 235.341 195.885 235.791C195.885 236.265 195.69 236.694 195.298 237.078C194.915 237.461 194.378 237.652 193.686 237.652C192.945 237.652 192.366 237.469 191.95 237.103C191.533 236.728 191.296 236.328 191.237 235.903Z" fill="#5A7184"/>
</g>
<path d="M113.228 187.494C111.217 186.557 108.828 187.428 107.892 189.439C106.955 191.45 107.826 193.839 109.837 194.775L113.228 187.494ZM186.088 160.812C186.737 158.691 185.544 156.446 183.424 155.796C181.303 155.147 179.057 156.339 178.407 158.46L186.088 160.812ZM109.837 194.775C116.933 198.08 124.842 199.923 133.172 199.923V191.89C126.038 191.89 119.283 190.314 113.228 187.494L109.837 194.775ZM133.172 199.923C158.092 199.923 179.155 183.452 186.088 160.812L178.407 158.46C172.479 177.82 154.463 191.89 133.172 191.89V199.923Z" fill="#FF7342"/>
<path d="M184.489 145.001C184.489 116.432 161.513 93.2715 133.172 93.2715C104.83 93.2715 81.8546 116.432 81.8546 145.001C81.8546 161.229 89.2674 175.712 100.866 185.196" stroke="#FFD167" stroke-width="7.43725" stroke-linecap="round"/>
<g filter="url(#filter1_d_1_1677)">
<path fill-rule="evenodd" clip-rule="evenodd" d="M133.618 166.455C145.448 166.455 155.038 156.866 155.038 145.036C155.038 133.206 145.448 123.617 133.618 123.617C121.789 123.617 112.199 133.206 112.199 145.036C112.199 156.866 121.789 166.455 133.618 166.455Z" fill="white"/>
</g>
<path d="M134.873 149.251C135.281 149.251 135.626 148.937 135.626 148.498V143.227H138.356C138.92 143.227 139.203 142.568 138.795 142.16L134.026 137.391C133.806 137.171 133.398 137.171 133.179 137.391L128.409 142.16C128.002 142.568 128.284 143.227 128.849 143.227H131.61V148.498C131.61 148.937 131.923 149.251 132.363 149.251H134.873ZM141.65 149C141.65 148.592 141.305 148.247 140.897 148.247H136.63V148.498C136.63 149.471 135.814 150.255 134.873 150.255H132.363C131.39 150.255 130.606 149.471 130.606 148.498V148.247H126.339C125.899 148.247 125.586 148.592 125.586 149V152.514C125.586 152.954 125.899 153.267 126.339 153.267H140.897C141.305 153.267 141.65 152.954 141.65 152.514V149ZM137.759 151.761C137.759 152.106 137.477 152.389 137.132 152.389C136.787 152.389 136.504 152.106 136.504 151.761C136.504 151.416 136.787 151.134 137.132 151.134C137.477 151.134 137.759 151.416 137.759 151.761ZM139.767 151.761C139.767 152.106 139.485 152.389 139.14 152.389C138.795 152.389 138.512 152.106 138.512 151.761C138.512 151.416 138.795 151.134 139.14 151.134C139.485 151.134 139.767 151.416 139.767 151.761Z" fill="#183B56"/>
<path d="M72.5729 55.6432H74.8041C75.4823 55.6432 76.0119 55.4706 76.3927 55.1255C76.7853 54.7686 76.9817 54.2926 76.9817 53.6976C76.9817 53.0907 76.7853 52.6088 76.3927 52.2518C76.0119 51.8948 75.4823 51.7163 74.8041 51.7163H72.5729V55.6432ZM75.1253 57.5352H72.5729V62.4795H70.431V49.8243H75.1253C76.3272 49.8243 77.297 50.1872 78.0348 50.9131C78.7845 51.639 79.1593 52.5612 79.1593 53.6797C79.1593 54.8102 78.7845 55.7384 78.0348 56.4642C77.297 57.1782 76.3272 57.5352 75.1253 57.5352ZM82.6293 60.1591C83.1053 60.647 83.6825 60.8909 84.3607 60.8909C85.039 60.8909 85.6102 60.647 86.0743 60.1591C86.5503 59.6712 86.7883 58.9929 86.7883 58.1242C86.7883 57.2675 86.5503 56.6011 86.0743 56.1251C85.6102 55.6372 85.039 55.3933 84.3607 55.3933C83.6825 55.3933 83.1053 55.6372 82.6293 56.1251C82.1653 56.6011 81.9332 57.2675 81.9332 58.1242C81.9332 58.981 82.1653 59.6593 82.6293 60.1591ZM84.3607 53.5191C85.6697 53.5191 86.7466 53.9534 87.5915 54.8221C88.4483 55.6908 88.8766 56.7915 88.8766 58.1242C88.8766 59.457 88.4483 60.5637 87.5915 61.4442C86.7466 62.3129 85.6697 62.7472 84.3607 62.7472C83.0637 62.7472 81.9868 62.3129 81.13 61.4442C80.2851 60.5637 79.8627 59.457 79.8627 58.1242C79.8627 56.7915 80.2851 55.6908 81.13 54.8221C81.9868 53.9534 83.0637 53.5191 84.3607 53.5191ZM90.2886 60.1234L92.0913 59.6236C92.127 60.0401 92.2996 60.3911 92.609 60.6767C92.9184 60.9623 93.3349 61.1051 93.8584 61.1051C94.263 61.1051 94.5784 61.0099 94.8045 60.8195C95.0424 60.6291 95.1614 60.3911 95.1614 60.1055C95.1614 59.6057 94.8223 59.2844 94.144 59.1417L92.8589 58.8561C92.1092 58.6895 91.5321 58.3801 91.1275 57.9279C90.7229 57.4757 90.5206 56.9402 90.5206 56.3214C90.5206 55.5599 90.83 54.9054 91.4488 54.358C92.0675 53.7987 92.8232 53.5191 93.7156 53.5191C94.2868 53.5191 94.7926 53.6024 95.2328 53.769C95.6731 53.9356 96.0123 54.1557 96.2503 54.4294C96.5001 54.6912 96.6905 54.947 96.8214 55.1969C96.9523 55.4468 97.0356 55.6967 97.0713 55.9466L95.3221 56.4464C95.2745 56.1132 95.1198 55.8157 94.858 55.5539C94.6081 55.2802 94.2273 55.1434 93.7156 55.1434C93.3587 55.1434 93.0612 55.2445 92.8232 55.4468C92.5852 55.6372 92.4662 55.8693 92.4662 56.143C92.4662 56.6308 92.7577 56.9343 93.3408 57.0533L94.6617 57.321C95.4708 57.4995 96.0896 57.8208 96.518 58.2849C96.9464 58.749 97.1606 59.3082 97.1606 59.9627C97.1606 60.6886 96.869 61.3371 96.286 61.9083C95.7148 62.4676 94.9115 62.7472 93.8763 62.7472C93.2813 62.7472 92.7458 62.658 92.2698 62.4795C91.8058 62.301 91.4369 62.0749 91.1632 61.8012C90.9014 61.5156 90.6931 61.236 90.5384 60.9623C90.3957 60.6767 90.3124 60.3971 90.2886 60.1234ZM102.016 51.1273V53.7868H103.819V55.6253H102.016V59.6593C102.016 60.0401 102.105 60.3197 102.284 60.4982C102.462 60.6648 102.742 60.7481 103.123 60.7481C103.361 60.7481 103.599 60.7243 103.837 60.6767V62.3902C103.527 62.5211 103.105 62.5866 102.569 62.5866C101.76 62.5866 101.124 62.3605 100.66 61.9083C100.196 61.4442 99.9635 60.8076 99.9635 59.9984V55.6253H98.357V53.7868H98.8033C99.2436 53.7868 99.5767 53.6619 99.8028 53.412C100.029 53.1621 100.142 52.8349 100.142 52.4303V51.1273H102.016ZM119.96 51.8412H115.837V62.4795H113.695V51.8412H109.589V49.8243H119.96V51.8412ZM123.225 65.9958H121.012L123.1 61.4442L119.388 53.7868H121.726L124.225 59.2844L126.563 53.7868H128.759L123.225 65.9958ZM132.506 65.8709H130.454V53.7868H132.453V54.9649C132.679 54.5722 133.036 54.245 133.524 53.9832C134.012 53.7214 134.577 53.5905 135.22 53.5905C136.469 53.5905 137.451 54.0189 138.165 54.8756C138.879 55.7205 139.236 56.8034 139.236 58.1242C139.236 59.4451 138.861 60.5399 138.111 61.4085C137.361 62.2653 136.374 62.6937 135.148 62.6937C134.553 62.6937 134.024 62.5806 133.56 62.3545C133.095 62.1285 132.744 61.8429 132.506 61.4978V65.8709ZM137.165 58.1242C137.165 57.3151 136.951 56.6665 136.523 56.1787C136.094 55.6789 135.529 55.429 134.827 55.429C134.137 55.429 133.571 55.6789 133.131 56.1787C132.703 56.6665 132.489 57.3151 132.489 58.1242C132.489 58.9453 132.703 59.6057 133.131 60.1055C133.571 60.6053 134.137 60.8552 134.827 60.8552C135.517 60.8552 136.076 60.6053 136.505 60.1055C136.945 59.6057 137.165 58.9453 137.165 58.1242ZM142.85 57.1782H147.116C147.093 56.6308 146.896 56.1727 146.527 55.8038C146.17 55.4349 145.653 55.2505 144.975 55.2505C144.356 55.2505 143.856 55.4468 143.475 55.8395C143.094 56.2203 142.886 56.6665 142.85 57.1782ZM147.348 59.4451L149.098 59.9984C148.848 60.7957 148.378 61.4561 147.688 61.9797C147.009 62.4914 146.17 62.7472 145.171 62.7472C143.933 62.7472 142.88 62.3248 142.012 61.4799C141.155 60.6351 140.726 59.5046 140.726 58.0885C140.726 56.7558 141.143 55.661 141.976 54.8043C142.821 53.9475 143.814 53.5191 144.957 53.5191C146.289 53.5191 147.331 53.9296 148.08 54.7507C148.83 55.5599 149.205 56.6546 149.205 58.035C149.205 58.4039 149.187 58.624 149.151 58.6954H142.797C142.821 59.3499 143.059 59.8913 143.511 60.3197C143.975 60.7481 144.528 60.9623 145.171 60.9623C146.289 60.9623 147.015 60.4566 147.348 59.4451Z" fill="#183B56"/>
<defs>
<filter id="filter0_d_1_1677" x="0.0449295" y="0.00829411" width="266.254" height="318.017" filterUnits="userSpaceOnUse" color-interpolation-filters="sRGB">
<feFlood flood-opacity="0" result="BackgroundImageFix"/>
<feColorMatrix in="SourceAlpha" type="matrix" values="0 0 0 0 0 0 0 0 0 0 0 0 0 0 0 0 0 0 127 0" result="hardAlpha"/>
<feOffset dy="14.8745"/>
<feGaussianBlur stdDeviation="17.4775"/>
<feColorMatrix type="matrix" values="0 0 0 0 0 0 0 0 0 0 0 0 0 0 0 0 0 0 0.05 0"/>
<feBlend mode="normal" in2="BackgroundImageFix" result="effect1_dropShadow_1_1677"/>
<feBlend mode="normal" in="SourceGraphic" in2="effect1_dropShadow_1_1677" result="shape"/>
</filter>
<filter id="filter1_d_1_1677" x="77.2441" y="103.536" width="112.749" height="112.749" filterUnits="userSpaceOnUse" color-interpolation-filters="sRGB">
<feFlood flood-opacity="0" result="BackgroundImageFix"/>
<feColorMatrix in="SourceAlpha" type="matrix" values="0 0 0 0 0 0 0 0 0 0 0 0 0 0 0 0 0 0 127 0" result="hardAlpha"/>
<feOffset dy="14.8745"/>
<feGaussianBlur stdDeviation="17.4775"/>
<feColorMatrix type="matrix" values="0 0 0 0 0 0 0 0 0 0 0 0 0 0 0 0 0 0 0.05 0"/>
<feBlend mode="normal" in2="BackgroundImageFix" result="effect1_dropShadow_1_1677"/>
<feBlend mode="normal" in="SourceGraphic" in2="effect1_dropShadow_1_1677" result="shape"/>
</filter>
<clipPath id="clip0_1_1677">
<rect width="55.0356" height="18.5931" fill="white" transform="translate(68.9138 224.465)"/>
</clipPath>
<clipPath id="clip1_1_1677">
<rect width="52.0607" height="18.5931" fill="white" transform="translate(145.666 224.465)"/>
</clipPath>
</defs>
</svg>
