<svg width="300" height="80" viewBox="0 0 300 80" fill="none" xmlns="http://www.w3.org/2000/svg">
<path d="M2.35242 77.796L28.8298 43.0716L63.9883 29.6159L105.658 7.91309L136.042 21.8029L178.145 32.2202L218.512 21.8029L248.028 58.6976H271.467L290.565 43.0716" stroke="#D8D8D8" stroke-width="3.47244" stroke-linecap="round"/>
<path d="M37.0768 40.9014C37.0768 44.2575 34.3562 46.9782 31.0001 46.9782C27.644 46.9782 24.9233 44.2575 24.9233 40.9014C24.9233 37.5453 27.644 34.8247 31.0001 34.8247C34.3562 34.8247 37.0768 37.5453 37.0768 40.9014Z" fill="#D8D8D8" stroke="white" stroke-width="1.73622"/>
<path d="M112.602 7.91217C112.602 11.2683 109.882 13.9889 106.526 13.9889C103.169 13.9889 100.449 11.2683 100.449 7.91217C100.449 4.55606 103.169 1.8354 106.526 1.8354C109.882 1.8354 112.602 4.55606 112.602 7.91217Z" fill="#D8D8D8" stroke="white" stroke-width="1.73622"/>
<path d="M183.788 31.3506C183.788 34.7068 181.067 37.4274 177.711 37.4274C174.355 37.4274 171.634 34.7068 171.634 31.3506C171.634 27.9945 174.355 25.2739 177.711 25.2739C181.067 25.2739 183.788 27.9945 183.788 31.3506Z" fill="#D8D8D8" stroke="white" stroke-width="1.73622"/>
<path d="M223.721 21.8023C223.721 25.1584 221 27.8791 217.644 27.8791C214.288 27.8791 211.568 25.1584 211.568 21.8023C211.568 18.4462 214.288 15.7255 217.644 15.7255C221 15.7255 223.721 18.4462 223.721 21.8023Z" fill="#D8D8D8" stroke="white" stroke-width="1.73622"/>
<path d="M254.973 58.2618C254.973 61.6179 252.252 64.3386 248.896 64.3386C245.54 64.3386 242.819 61.6179 242.819 58.2618C242.819 54.9057 245.54 52.185 248.896 52.185C252.252 52.185 254.973 54.9057 254.973 58.2618Z" fill="#D8D8D8" stroke="white" stroke-width="1.73622"/>
<path d="M277.544 58.2618C277.544 61.6179 274.823 64.3386 271.467 64.3386C268.111 64.3386 265.39 61.6179 265.39 58.2618C265.39 54.9057 268.111 52.185 271.467 52.185C274.823 52.185 277.544 54.9057 277.544 58.2618Z" fill="#D8D8D8" stroke="white" stroke-width="1.73622"/>
<path d="M298.378 40.9014C298.378 44.2575 295.658 46.9782 292.301 46.9782C288.945 46.9782 286.225 44.2575 286.225 40.9014C286.225 37.5453 288.945 34.8247 292.301 34.8247C295.658 34.8247 298.378 37.5453 298.378 40.9014Z" fill="#D8D8D8" stroke="white" stroke-width="1.73622"/>
</svg>
